<svg width="64" height="64" viewBox="0 0 64 64" xmlns="http://www.w3.org/2000/svg">
    <path fill="#189ea0" d="M 32.749084 63.970276 C 31.634724 63.970276 30.760317 63.092983 30.760317 61.971172 C 30.760317 60.84758 31.634724 59.965683 32.749084 59.965683 C 33.860519 59.965683 34.764942 60.866257 34.764942 61.971172 C 34.764942 63.074306 33.860519 63.970276 32.749084 63.970276 M 47.012016 59.554764 C 47.901386 59.554764 48.62495 58.837898 48.62495 57.956005 C 48.62495 57.072289 47.901386 56.351475 47.012016 56.351475 C 46.120781 56.351475 45.421597 57.05629 45.421597 57.956005 C 45.421597 58.852867 46.120781 59.554764 47.012016 59.554764 M 57.6698 49.512791 C 58.781235 49.512791 59.685654 48.615891 59.685654 47.514679 C 59.685654 46.408875 58.781235 45.508163 57.6698 45.508163 C 56.555546 45.508163 55.681171 46.390091 55.681171 47.514679 C 55.681171 48.635601 56.555546 49.512791 57.6698 49.512791 M 58.282452 21.263317 C 59.839153 21.263317 61.105171 20.008415 61.105171 18.464901 C 61.105171 16.91758 59.839153 15.657146 58.282452 15.657146 C 56.72208 15.657146 55.499004 16.891342 55.499004 18.464901 C 55.499004 20.034645 56.72208 21.263317 58.282452 21.263317 M 47.000889 11.141476 C 48.779675 11.141476 50.226669 9.707676 50.226669 7.944744 C 50.226669 6.176285 48.779675 4.734959 47.000889 4.734959 C 45.217487 4.734959 43.819126 6.145348 43.819126 7.944744 C 43.819126 9.737579 45.217487 11.141476 47.000889 11.141476 M 32.737926 7.388573 C 34.738708 7.388573 36.366619 5.775738 36.366619 3.79071 C 36.366619 1.802082 34.738708 0.180695 32.737926 0.180695 C 30.7314 0.180695 29.158739 1.767395 29.158739 3.79071 C 29.158739 5.808495 30.7314 7.388573 32.737926 7.388573 M 17.779865 12.342812 C 20.22587 12.342812 22.215528 10.371078 22.215528 7.946526 C 22.215528 5.515491 20.22587 3.533386 17.779865 3.533386 C 15.327301 3.533386 13.406069 5.473389 13.406069 7.946526 C 13.406069 10.412243 15.327301 12.342812 17.779865 12.342812 M 6.98627 22.064106 C 8.987161 22.064106 10.615078 20.451305 10.615078 18.466244 C 10.615078 16.477608 8.987161 14.856258 6.98627 14.856258 C 4.979719 14.856258 3.407189 16.442963 3.407189 18.466244 C 3.407189 20.48402 4.979719 22.064106 6.98627 22.064106 M 3.389504 36.218254 C 5.1682 36.218254 6.615292 34.784447 6.615292 33.02063 C 6.615292 31.252205 5.1682 29.811741 3.389504 29.811741 C 1.606013 29.811741 0.207748 31.22226 0.207748 33.02063 C 0.207748 34.814392 1.606013 36.218254 3.389504 36.218254 M 7.448832 50.254723 C 9.005398 50.254723 10.271559 48.999817 10.271559 47.45631 C 10.271559 45.909981 9.005398 44.648521 7.448832 44.648521 C 5.888433 44.648521 4.665356 45.882751 4.665356 47.45631 C 4.665356 49.02602 5.888433 50.254723 7.448832 50.254723 M 17.7938 60.473469 C 19.127481 60.473469 20.212685 59.397568 20.212685 58.075153 C 20.212685 56.749138 19.127481 55.668499 17.7938 55.668499 C 16.456421 55.668499 15.40775 56.726612 15.40775 58.075153 C 15.40775 59.420059 16.456421 60.473469 17.7938 60.473469 M 37.761967 43.403404 C 38.873409 43.403404 39.778721 42.507431 39.778721 41.405331 C 39.778721 40.299522 38.873409 39.398808 37.761967 39.398808 C 36.647572 39.398808 35.77409 40.280701 35.77409 41.405331 C 35.77409 42.526215 36.647572 43.403404 37.761967 43.403404 M 42.648388 35.375298 C 43.981918 35.375298 45.067165 34.2995 45.067165 32.977085 C 45.067165 31.650967 43.981918 30.570465 42.648388 30.570465 C 41.311001 30.570465 40.262329 31.628582 40.262329 32.977085 C 40.262329 34.322021 41.311001 35.375298 42.648388 35.375298 M 37.756336 27.288197 C 39.312897 27.288197 40.579063 26.033401 40.579063 24.49078 C 40.579063 22.943459 39.312897 21.681995 37.756336 21.681995 C 36.195824 21.681995 34.973785 22.916328 34.973785 24.49078 C 34.973785 26.059631 36.195824 27.288197 37.756336 27.288197 M 27.948956 27.688747 C 29.72686 27.688747 31.174734 26.254944 31.174734 24.491123 C 31.174734 22.722698 29.72686 21.282238 27.948956 21.282238 C 26.165562 21.282238 24.767298 22.692657 24.767298 24.491123 C 24.767298 26.284885 26.165562 27.688747 27.948956 27.688747 M 32.74345 35.775845 C 34.300014 35.775845 35.566177 34.521042 35.566177 32.978424 C 35.566177 31.431107 34.300014 30.169674 32.74345 30.169674 C 31.18305 30.169674 29.959972 31.403976 29.959972 32.978424 C 29.959972 34.547279 31.18305 35.775845 32.74345 35.775845 M 23.152021 35.775845 C 24.708687 35.775845 25.974848 34.521042 25.974848 32.977432 C 25.974848 31.43021 24.708687 30.169674 23.152021 30.169674 C 21.591616 30.169674 20.368647 31.403976 20.368647 32.977432 C 20.368647 34.547279 21.591616 35.775845 23.152021 35.775845 M 28.04685 43.896011 C 29.380423 43.896011 30.465668 42.82011 30.465668 41.497837 C 30.465668 40.17168 29.380423 39.091179 28.04685 39.091179 C 26.709471 39.091179 25.660799 40.149193 25.660799 41.497837 C 25.660799 42.842636 26.709471 43.896011 28.04685 43.896011 M 27.645956 53.54248 C 28.757401 53.54248 29.661821 52.645618 29.661821 51.543484 C 29.661821 50.438465 28.757401 49.537891 27.645956 49.537891 C 26.531563 49.537891 25.658121 50.419785 25.658121 51.543484 C 25.658121 52.664299 26.531563 53.54248 27.645956 53.54248 M 19.421371 48.898113 C 20.755941 48.898113 21.840256 47.822212 21.840256 46.499798 C 21.840256 45.173782 20.755941 44.093143 19.421371 44.093143 C 18.084091 44.093143 17.03532 45.151257 17.03532 46.499798 C 17.03532 47.844704 18.084091 48.898113 19.421371 48.898113 M 14.216747 40.667892 C 15.772523 40.667892 17.039581 39.412991 17.039581 37.869476 C 17.039581 36.322121 15.772523 35.061691 14.216747 35.061691 C 12.656382 35.061691 11.433413 36.295891 11.433413 37.869476 C 11.433413 39.43919 12.656382 40.667892 14.216747 40.667892 M 14.213937 31.088036 C 15.991735 31.088036 17.439716 29.654095 17.439716 27.890377 C 17.439716 26.12196 15.991735 24.681492 14.213937 24.681492 C 12.430437 24.681492 11.033063 26.091911 11.033063 27.890377 C 11.033063 29.684143 12.430437 31.088036 14.213937 31.088036 M 18.831347 23.057186 C 20.832237 23.057186 22.460121 21.444275 22.460121 19.459354 C 22.460121 17.470589 20.832237 15.849339 18.831347 15.849339 C 16.824903 15.849339 15.253263 17.436939 15.253263 19.459354 C 15.253263 21.477108 16.824903 23.057186 18.831347 23.057186 M 27.68342 18.190235 C 29.684311 18.190235 31.31212 16.577435 31.31212 14.592506 C 31.31212 12.602848 29.684311 10.982487 27.68342 10.982487 C 25.676903 10.982487 24.105238 12.569092 24.105238 14.592506 C 24.105238 16.610157 25.676903 18.190235 27.68342 18.190235 M 37.781193 17.789787 C 39.559986 17.789787 41.006981 16.355988 41.006981 14.592167 C 41.006981 12.823742 39.559986 11.383282 37.781193 11.383282 C 35.997799 11.383282 34.600433 12.794693 34.600433 14.592167 C 34.600433 16.385929 35.997799 17.789787 37.781193 17.789787 M 46.844822 22.207565 C 48.400589 22.207565 49.667648 20.952663 49.667648 19.409149 C 49.667648 17.861931 48.400589 16.601398 46.844822 16.601398 C 45.284416 16.601398 44.061478 17.835697 44.061478 19.409149 C 44.061478 20.979 45.284416 22.207565 46.844822 22.207565 M 51.19331 30.238422 C 52.52684 30.238422 53.612087 29.162518 53.612087 27.840107 C 53.612087 26.514091 52.52684 25.433453 51.19331 25.433453 C 49.855923 25.433453 48.807251 26.49157 48.807251 27.840107 C 48.807251 29.185013 49.855923 30.238422 51.19331 30.238422 M 51.098572 39.867004 C 52.210114 39.867004 53.114426 38.970108 53.114426 37.868004 C 53.114426 36.763084 52.210114 35.86248 51.098572 35.86248 C 49.984276 35.86248 49.110832 36.744408 49.110832 37.868004 C 49.110832 38.988888 49.984276 39.867004 51.098572 39.867004 M 46.168613 48.097084 C 47.057919 48.097084 47.781414 47.380249 47.781414 46.498322 C 47.781414 45.614609 47.057919 44.893829 46.168613 44.893829 C 45.277344 44.893829 44.578159 45.59864 44.578159 46.498322 C 44.578159 47.395187 45.277344 48.097084 46.168613 48.097084 M 37.792564 53.141937 C 38.681904 53.141937 39.405399 52.425068 39.405399 51.543175 C 39.405399 50.659462 38.681904 49.938644 37.792564 49.938644 C 36.901299 49.938644 36.20211 50.643459 36.20211 51.543175 C 36.20211 52.440041 36.901299 53.141937 37.792564 53.141937 M 61.464104 35.417358 C 60.126732 35.417358 59.077942 34.363983 59.077942 33.019188 C 59.077942 31.67054 60.126732 30.612526 61.464104 30.612526 C 62.797684 30.612526 63.882912 31.693031 63.882912 33.019188 C 63.882912 34.341461 62.797684 35.417358 61.464104 35.417358"/>
</svg>
