<?xml version="1.0" encoding="UTF-8" standalone="no"?>
<!-- Created with Inkscape (http://www.inkscape.org/) -->

<svg
   version="1.1"
   id="svg1"
   width="2560.6399"
   height="1440.64"
   viewBox="0 0 2560.6399 1440.64"
   sodipodi:docname="all.svg"
   xml:space="preserve"
   inkscape:version="1.3.2 (091e20ef0f, 2023-11-25, custom)"
   inkscape:export-filename="base.svg"
   inkscape:export-xdpi="96"
   inkscape:export-ydpi="96"
   xmlns:inkscape="http://www.inkscape.org/namespaces/inkscape"
   xmlns:sodipodi="http://sodipodi.sourceforge.net/DTD/sodipodi-0.dtd"
   xmlns="http://www.w3.org/2000/svg"
   xmlns:svg="http://www.w3.org/2000/svg"><defs
     id="defs1" /><sodipodi:namedview
     id="namedview1"
     pagecolor="#ffffff"
     bordercolor="#000000"
     borderopacity="0.25"
     inkscape:showpageshadow="2"
     inkscape:pageopacity="0.0"
     inkscape:pagecheckerboard="0"
     inkscape:deskcolor="#d1d1d1"
     showguides="false"
     inkscape:zoom="0.36699612"
     inkscape:cx="1234.3455"
     inkscape:cy="442.78397"
     inkscape:window-width="1910"
     inkscape:window-height="1040"
     inkscape:window-x="5"
     inkscape:window-y="35"
     inkscape:window-maximized="1"
     inkscape:current-layer="g1"
     inkscape:document-units="px"><sodipodi:guide
       position="60,1010.3128"
       orientation="-1,0"
       id="guide6"
       inkscape:locked="false"
       inkscape:label=""
       inkscape:color="rgb(0,134,229)" /><sodipodi:guide
       position="2500.6399,1110.3474"
       orientation="-1,0"
       id="guide7"
       inkscape:locked="false"
       inkscape:label=""
       inkscape:color="rgb(0,134,229)" /><sodipodi:guide
       position="1949.4103,1380.64"
       orientation="0,1"
       id="guide8"
       inkscape:locked="false"
       inkscape:label=""
       inkscape:color="rgb(0,134,229)" /><sodipodi:guide
       position="295.87811,60"
       orientation="0,1"
       id="guide9"
       inkscape:locked="false"
       inkscape:label=""
       inkscape:color="rgb(0,134,229)" /><sodipodi:guide
       position="500.9477,1252.2466"
       orientation="1,0"
       id="guide10"
       inkscape:locked="false" /><sodipodi:guide
       position="377.70238,1220.64"
       orientation="0,-1"
       id="guide11"
       inkscape:locked="false" /><sodipodi:guide
       position="501.36719,1300.7347"
       orientation="0,-1"
       id="guide18"
       inkscape:locked="false" /></sodipodi:namedview><g
     inkscape:groupmode="layer"
     inkscape:label="basic"
     id="g1"><path
       id="text2-2"
       style="font-style:normal;font-variant:normal;font-weight:normal;font-stretch:normal;font-size:38.3661px;font-family:'Lab Grotesque';-inkscape-font-specification:'Lab Grotesque, Normal';font-variant-ligatures:normal;font-variant-caps:normal;font-variant-numeric:normal;font-variant-east-asian:normal;fill:#384997;fill-opacity:1;stroke:none;stroke-width:3.19717"
       d="m 127.01756,60.622648 c -4.18691,0 -7.46312,3.399395 -7.46312,7.730512 0,4.321484 3.27621,7.704775 7.46312,7.704775 4.16804,0 7.56524,-3.455048 7.56524,-7.704775 0,-4.258294 -3.3972,-7.730512 -7.56524,-7.730512 z m -31.187867,7.18017 c -5.109539,0 -9.114525,4.154001 -9.114525,9.446863 0.0011,5.280038 4.004986,9.419148 9.114525,9.419148 5.099977,0 9.249417,-4.220499 9.249417,-9.419148 0,-5.202905 -4.14838,-9.446863 -9.249417,-9.446863 z m 60.918947,2.569579 c -3.7155,0 -6.63068,3.021856 -6.63068,6.875305 0,3.842726 2.91518,6.84363 6.63068,6.84363 3.70938,0 6.72702,-3.064094 6.72702,-6.84363 0,-3.785975 -3.01764,-6.875305 -6.72702,-6.875305 z m 62.75726,5.491533 10.77942,23.524114 c -1.34067,3.423096 -3.37541,5.041446 -7.12012,4.658106 v 5.08372 c 5.50472,0.33206 9.43443,-2.32952 11.97606,-8.55008 l 10.04139,-24.71586 h -5.37044 l -7.07387,17.53569 -7.86585,-17.53569 z m -103.02689,7.890863 c -4.18399,0 -7.4612,3.397416 -7.4612,7.728531 7.9e-4,4.32484 3.27827,7.708735 7.4612,7.708735 4.17415,0 7.56332,-3.455652 7.56332,-7.708735 0,-4.260176 -3.38917,-7.728531 -7.56332,-7.728531 z m 217.77548,0.320702 c -7.26102,0 -12.20537,5.462976 -12.20537,12.495515 0,7.13103 4.94517,12.50145 12.57535,12.50145 4.53881,0 8.00465,-1.95115 10.13196,-5.1827 l -4.11599,-2.46862 c -1.11013,1.66325 -3.18981,2.94373 -5.96779,2.94373 -3.69957,0 -6.61341,-1.89971 -7.39953,-5.604373 h 18.41018 c 0.093,-0.666284 0.18692,-1.429169 0.18692,-2.138016 0,-6.844004 -4.72386,-12.546986 -11.61573,-12.546986 z m 29.1029,0 c -3.60926,0 -6.33894,1.52327 -8.09709,4.042434 l -1.50881,-3.422805 h -3.48588 v 34.817986 h 4.99469 V 105.0815 c 1.75815,2.47224 4.48783,3.99294 8.09709,3.99294 6.29164,0 11.51551,-5.41755 11.51551,-12.499471 0,-7.032538 -5.22387,-12.499474 -11.51551,-12.499474 z m 26.96974,0 c -6.98481,0 -12.21308,5.418642 -12.21308,12.499474 0,7.033631 5.22827,12.499431 12.21308,12.501451 4.53349,0 8.46804,-2.42441 10.40944,-6.17847 l -4.30097,-2.5181 c -1.11014,2.18711 -3.37818,3.6564 -6.15086,3.6564 -4.07138,0 -7.17215,-3.18146 -7.17215,-7.461281 0,-4.275728 3.10077,-7.461279 7.17215,-7.461279 2.77533,0 5.04118,1.427412 6.05836,3.660362 l 4.29905,-2.565619 c -1.84846,-3.707941 -5.77888,-6.132938 -10.31502,-6.132938 z m 71.56926,0 c -7.26103,0 -12.2073,5.462976 -12.2073,12.495515 0,7.13103 4.94636,12.50145 12.5792,12.50145 4.53084,0 8.00226,-1.95115 10.12425,-5.1827 l -4.11021,-2.46862 c -1.11279,1.66325 -3.1932,2.94373 -5.96587,2.94373 -3.70753,0 -6.61799,-1.89971 -7.40145,-5.604373 h 18.41018 c 0.0903,-0.666284 0.18306,-1.429169 0.18306,-2.138016 0,-6.844004 -4.72001,-12.546986 -11.61186,-12.546986 z m -324.36726,0.538463 c -3.71577,0 -6.6326,3.01702 -6.6326,6.867386 0,3.845728 2.91683,6.84759 6.6326,6.84759 3.71044,0 6.72509,-3.063798 6.72509,-6.84759 0,-3.781882 -3.01465,-6.867386 -6.72509,-6.867386 z m 109.57085,0.07919 v 23.763642 h 4.99661 v -9.460712 h 10.5925 v 9.460712 h 4.99661 V 84.693144 h -4.99661 v 9.456761 h -10.5925 v -9.456761 z m 26.36853,0 v 23.763642 h 3.84044 l 11.84117,-15.112596 v 15.112596 h 4.90604 V 84.693144 H 290.2138 L 278.37263,99.756258 V 84.693144 Z m 26.37239,0 v 23.761662 h 11.83925 c 5.04367,0 7.58837,-2.94326 7.58837,-6.7486 0,-2.469776 -1.20156,-4.418757 -3.42421,-5.461837 1.61899,-1.096831 2.40677,-2.85364 2.40677,-4.994643 0,-3.754052 -2.58758,-6.556582 -7.49395,-6.556582 z m 104.64169,0 v 23.763642 h 3.84043 l 11.84117,-15.112596 v 15.112596 h 4.90797 V 84.693144 h -3.84428 L 409.39055,99.756258 V 84.693144 Z m 23.92129,0 v 4.939213 h 7.58837 v 18.818499 h 4.99468 V 89.632357 h 7.53827 v -4.939213 z m 46.12373,0 v 4.939213 h 7.5903 v 18.818499 h 4.99276 V 89.632357 h 7.5402 v -4.939213 z m -140.31744,4.036495 c 3.00905,0 5.92595,1.759786 6.61912,5.845889 h -13.60435 c 0.69582,-3.564426 3.23787,-5.845889 6.98523,-5.845889 z m 127.63997,0 c 3.0117,0 5.92136,1.759786 6.61718,5.845889 h -13.60049 c 0.69052,-3.564426 3.2386,-5.845889 6.98331,-5.845889 z m -99.2751,0.243496 c 4.15901,0 7.30896,3.18259 7.30896,7.601834 0,4.420327 -3.14995,7.600817 -7.30896,7.601827 -4.16965,0 -7.31474,-3.1815 -7.31474,-7.601827 0,-4.419244 3.14509,-7.601834 7.31474,-7.601834 z m -57.96877,0.09304 h 5.78089 c 1.94219,0 3.05423,0.901788 3.05423,2.611151 0,1.760932 -1.06502,2.662622 -3.05423,2.662622 h -5.78089 z M 73.328571,92.051482 c -4.180611,0 -7.459266,3.400486 -7.459266,7.730511 0,4.321297 3.278655,7.704777 7.459266,7.704777 4.171236,0 7.563321,-3.45524 7.563321,-7.704777 0,-4.260449 -3.392085,-7.730511 -7.563321,-7.730511 z m 106.944399,1.712392 c -3.25498,0 -5.804,2.647888 -5.804,6.016139 0,3.360607 2.54902,5.994367 5.804,5.994367 3.24543,0 5.88302,-2.68505 5.88302,-5.994367 0,-3.313682 -2.63654,-6.016139 -5.88302,-6.016139 z M 98.024502,94.1796 c -4.186906,0 -7.461193,3.400689 -7.461193,7.72853 0,4.32375 3.274287,7.70676 7.461193,7.70676 4.174418,0 7.563318,-3.45586 7.563318,-7.70676 0,-4.259358 -3.3889,-7.72853 -7.563318,-7.72853 z m 58.402328,1.605491 c -3.2547,0 -5.804,2.645702 -5.804,6.016139 0,3.36607 2.55035,5.99436 5.804,5.99436 3.24569,0 5.88494,-2.68832 5.88494,-5.99436 0,-3.311502 -2.63925,-6.016139 -5.88494,-6.016139 z m 148.17944,2.787339 h 6.60948 c 1.99319,0 3.15058,0.952263 3.15058,2.61115 0,1.80595 -1.15739,2.80516 -3.15058,2.80516 h -6.60948 z m -187.57615,7.23956 c -3.71657,0 -6.63068,3.02085 -6.63068,6.8753 0,3.83619 2.91411,6.84759 6.63068,6.84759 3.71044,0 6.72702,-3.06924 6.72702,-6.84759 0,-3.79034 -3.01658,-6.8753 -6.72702,-6.8753 z m 20.44891,0.85719 c -3.25472,0 -5.80208,2.64262 -5.80208,6.01416 -9.9e-4,3.35979 2.54736,5.99436 5.80208,5.99436 3.24435,0 5.88494,-2.68614 5.88494,-5.99436 0,-3.31042 -2.63953,-6.01416 -5.88494,-6.01416 z m -49.081625,6.42592 c -3.719879,0 -6.632599,3.01928 -6.632599,6.86937 0,3.84273 2.91272,6.85353 6.632599,6.85353 3.706202,0 6.723167,-3.07492 6.723167,-6.85353 0,-3.78707 -3.016965,-6.86937 -6.723167,-6.86937 z m 77.093855,1.60945 c -2.78675,0 -4.97349,2.26531 -4.97349,5.155 9.9e-4,2.88095 2.18674,5.13519 4.97349,5.13519 2.78145,0 5.04285,-2.30035 5.04285,-5.13519 0,-2.84031 -2.2614,-5.155 -5.04285,-5.155 z m 80.16157,2.55374 c -16.88201,-0.002 -29.00654,13.02765 -29.00654,29.55213 0,16.53186 12.12348,29.56203 29.00654,29.56203 10.22333,0 19.25927,-5.37679 23.85385,-13.68132 l -7.92559,-4.63633 c -2.85236,5.61294 -8.95354,9.19545 -15.92826,9.19545 -11.9674,0 -19.89202,-8.71158 -19.89202,-20.43785 0,-11.7189 7.92568,-20.43389 19.89202,-20.43389 6.97472,0 12.99995,3.58191 15.92826,9.20139 l 7.92559,-4.72145 c -4.67691,-8.30672 -13.71285,-13.60016 -23.85385,-13.60016 z m -179.823991,6.82384 c -3.716692,0 -6.6326,3.02017 -6.6326,6.87134 0,3.84164 2.915908,6.84759 6.6326,6.84759 3.709388,0 6.725093,-3.07007 6.725093,-6.84759 0,-3.78705 -3.015705,-6.87134 -6.725093,-6.87134 z m 41.202281,0.76216 c -3.25498,0 -5.80401,2.64769 -5.80401,6.01812 0,3.35871 2.55009,5.99436 5.80401,5.99436 3.24541,0 5.88494,-2.69132 5.88494,-5.99436 0,-3.31559 -2.63953,-6.01812 -5.88494,-6.01812 z m 19.99607,0 c -3.25179,0 -5.80401,2.64769 -5.80401,6.01812 0,3.35871 2.55222,5.99436 5.80401,5.99436 3.24542,0 5.88494,-2.69132 5.88494,-5.99436 0,-3.3134 -2.63952,-6.01812 -5.88494,-6.01812 z m 20.65124,0.86313 c -2.78968,0 -4.97349,2.26559 -4.97349,5.15499 -9.8e-4,2.87904 2.18275,5.13124 4.97349,5.13124 2.77852,0 5.04478,-2.30048 5.04478,-5.13124 0,-2.8422 -2.26732,-5.15499 -5.04478,-5.15499 z m 39.22714,0.0891 c -2.78781,0 -4.97541,2.26667 -4.97541,5.15499 0,2.87796 2.1876,5.13718 4.97541,5.13718 2.78039,0 5.04286,-2.30424 5.04286,-5.13718 0,-2.8422 -2.26247,-5.15499 -5.04286,-5.15499 z m 156.8103,7.05941 c -6.1801,0 -10.85783,2.60868 -13.87219,6.9248 l -2.76711,-5.86173 h -5.79052 v 56.99 h 8.55763 v -22.0592 c 3.01436,4.23044 7.69209,6.83374 13.87219,6.83374 10.77999,0 19.73594,-9.27651 19.73594,-21.40986 0,-12.05286 -8.95329,-21.41777 -19.73594,-21.41777 z m 132.69246,0 c -11.96979,0 -20.92872,9.28443 -20.92872,21.41777 0,12.05204 8.95965,21.40986 20.92679,21.40986 7.76563,0 14.49976,-4.14865 17.83017,-10.5812 l -7.37255,-4.31761 c -1.89626,3.74642 -5.7839,6.26954 -10.54048,6.26954 -6.97419,0 -12.28052,-5.45174 -12.28052,-12.78059 0,-7.32556 5.30633,-12.78256 12.28052,-12.78256 4.75658,0 8.6441,2.44154 10.38632,6.26953 l 7.37063,-4.39679 c -3.17372,-6.35098 -9.90918,-10.50795 -17.67216,-10.50795 z M 277.32436,133.919 v 40.71139 h 7.2473 l 18.62408,-25.21077 v 25.21077 h 8.4054 V 133.919 h -6.58057 l -19.29273,26.4916 V 133.919 Z m 93.68306,0 v 40.71139 h 7.23959 l 18.62408,-25.21077 v 25.21077 h 8.40348 V 133.919 h -6.57865 l -19.2908,26.4916 V 133.919 Z m 41.01922,0 16.64509,40.38079 -0.23895,0.57211 c -1.97859,5.45577 -4.99173,8.14025 -10.5424,7.81366 v 8.22344 c 8.72437,0.57406 15.61864,-4.63532 19.34476,-14.97799 L 452.4485,133.919 h -9.11646 L 433.19045,163.55823 421.14309,133.919 Z m -323.621527,1.40555 c -3.251631,0 -5.804006,2.64392 -5.804006,6.01218 -0.0011,3.36197 2.551313,5.99832 5.804006,5.99832 3.241432,0 5.881085,-2.69119 5.881085,-5.99832 0,-3.31587 -2.639653,-6.01218 -5.881085,-6.01218 z m 76.891517,1.71437 c -2.32597,0 -4.14682,1.89222 -4.14682,4.29979 0,2.39474 1.82085,4.27801 4.14682,4.27801 2.31641,0 4.19885,-1.92173 4.19885,-4.27801 0,-2.37019 -1.88351,-4.29979 -4.19885,-4.29979 z m 177.0723,4.20674 c 7.13089,0 12.52139,5.45528 12.52139,13.02804 0,7.57304 -5.38785,13.02804 -12.52139,13.02804 -7.13088,0 -12.52525,-5.455 -12.52525,-13.02804 0,-7.57276 5.39437,-13.02804 12.52525,-13.02804 z m -225.13455,2.71014 c -2.78384,0 -4.96771,2.26428 -4.96771,5.15697 0,2.87468 2.18493,5.1352 4.96771,5.1352 2.78462,0 5.04285,-2.30445 5.04285,-5.1352 0,-2.84139 -2.25823,-5.15697 -5.04285,-5.15697 z m 20.25814,0.65724 c -2.32278,0 -4.14682,1.89242 -4.14682,4.29781 0,2.3991 1.82404,4.27603 4.14682,4.27603 2.31667,0 4.20077,-1.91239 4.20077,-4.27603 0,-2.36801 -1.8841,-4.29781 -4.20077,-4.29781 z m -38.242471,10.05263 c -2.786753,0 -4.971559,2.26756 -4.971559,5.15698 0,2.87877 2.184806,5.13519 4.971559,5.13519 2.783571,0 5.050561,-2.30445 5.050561,-5.13519 0,-2.84031 -2.26592,-5.15698 -5.050561,-5.15698 z m -24.957998,1.19373 c -3.25171,0 -5.802079,2.64195 -5.802079,6.0102 0,3.35979 2.551405,5.99436 5.802079,5.99436 3.241273,0 5.883012,-2.68586 5.883012,-5.99436 0,-3.31559 -2.640703,-6.0102 -5.883012,-6.0102 z m 80.722319,0.52262 c -1.85562,0 -3.31437,1.50991 -3.31437,3.43865 9.8e-4,1.92027 1.45875,3.42082 3.31437,3.42082 1.85801,0 3.3664,-1.53248 3.3664,-3.42082 0,-1.89354 -1.50839,-3.43865 -3.3664,-3.43865 z m 23.98296,1.31647 c -2.32385,0 -4.14682,1.88847 -4.14682,4.29385 0,2.40102 1.82297,4.28197 4.14682,4.28197 2.31243,0 4.19884,-1.91832 4.19884,-4.28197 0,-2.36364 -1.88641,-4.29385 -4.19884,-4.29385 z M 116.4,166.32576 c -2.32384,0 -4.14682,1.89222 -4.14682,4.29979 0,2.39993 1.82298,4.28197 4.14682,4.28197 2.31562,0 4.2027,-1.92051 4.2027,-4.28197 0,-2.37237 -1.88708,-4.29979 -4.2027,-4.29979 z m 21.15418,0.8651 c -1.85776,0 -3.31823,1.50568 -3.31823,3.43469 0,1.92026 1.45942,3.41884 3.31823,3.41884 1.85137,0 3.36447,-1.53187 3.36447,-3.41884 0,-1.89354 -1.5131,-3.43469 -3.36447,-3.43469 z m -41.693655,12.26588 c -2.789943,0 -4.973486,2.27083 -4.973486,5.15697 0,2.88123 2.183543,5.1352 4.973486,5.1352 2.781444,0 5.040925,-2.30445 5.040925,-5.1352 0,-2.84439 -2.259481,-5.15697 -5.040925,-5.15697 z m 60.915085,1.46098 c -1.85801,0 -3.31822,1.51298 -3.31822,3.44062 0,1.91618 1.46021,3.42478 3.31822,3.42478 1.85137,0 3.36062,-1.53644 3.36062,-3.42478 0,-1.89654 -1.50925,-3.44062 -3.36062,-3.44062 z m -29.73493,7.74041 c -2.32279,0 -4.14297,1.89043 -4.14297,4.29582 0,2.40103 1.82018,4.28395 4.14297,4.28395 2.31641,0 4.19885,-1.91703 4.19885,-4.28395 0,-2.36365 -1.88244,-4.29582 -4.19885,-4.29582 z m 89.60561,2.29242 v 27.23991 h 3.53019 v -12.65983 h 4.94844 l 9.24556,12.65983 h 4.10635 l -10.5135,-14.30887 9.97588,-12.93104 h -4.02928 l -8.86209,11.62645 h -4.87136 v -11.62645 z m 31.65226,7.82752 c -2.73678,0 -4.98723,0.93405 -6.75207,2.80119 -1.73926,1.84158 -2.60911,4.23284 -2.60911,7.17424 0,2.94139 0.86985,5.34469 2.60911,7.21184 1.76484,1.84157 4.01529,2.76358 6.75207,2.76358 2.73678,0 4.97427,-0.92201 6.71353,-2.76358 1.73926,-1.86715 2.60911,-4.27045 2.60911,-7.21184 0,-2.9414 -0.86985,-5.33266 -2.60911,-7.17424 -1.73926,-1.86714 -3.97675,-2.80119 -6.71353,-2.80119 z m 63.64945,0 c -2.71121,0 -4.89878,0.94608 -6.56131,2.83881 -1.63695,1.86715 -2.45495,4.28446 -2.45495,7.25143 0,2.96698 0.84392,5.35824 2.53203,7.17424 1.71369,1.79041 3.99006,2.68637 6.82915,2.68637 1.61138,0 3.04383,-0.29464 4.29712,-0.88292 1.2533,-0.58828 2.55806,-1.5985 3.91366,-3.03083 l -1.95779,-1.99549 c -1.27887,1.20214 -2.33929,2.02193 -3.18334,2.45674 -0.84405,0.4604 -1.85455,0.68892 -3.03111,0.68892 -1.86715,0 -3.32553,-0.59934 -4.3742,-1.80148 -1.04867,-1.22771 -1.62425,-2.83925 -1.72656,-4.83429 h 14.15738 c 0.0512,-0.61386 0.0771,-1.10091 0.0771,-1.459 0,-2.83908 -0.75511,-5.06398 -2.26418,-6.67536 -1.48348,-1.61137 -3.56736,-2.41714 -6.25298,-2.41714 z m -48.80222,0.53648 -0.0771,8.82526 c -0.0767,3.22274 -0.25627,5.24319 -0.53762,6.06167 -0.25577,0.79289 -0.94608,1.23989 -2.07148,1.3422 -0.46039,0 -0.94524,-0.0381 -1.45678,-0.11482 l -0.34493,2.72399 c 0.61386,0.15346 1.32816,0.22964 2.14664,0.22964 2.14849,-0.10231 3.54399,-0.80586 4.18343,-2.11031 0.63943,-1.30444 0.99658,-3.97633 1.07331,-8.01756 l 0.0771,-6.25369 h 7.67316 v 16.18953 h 3.29896 v -18.87591 z m 21.75346,0 -0.0771,8.82526 c -0.0767,3.22274 -0.25627,5.24319 -0.53763,6.06167 -0.25577,0.79289 -0.94607,1.23989 -2.07148,1.3422 -0.46039,0 -0.94523,-0.0381 -1.45678,-0.11482 l -0.34493,2.72399 c 0.61386,0.15346 1.33009,0.22964 2.14856,0.22964 2.1485,-0.10231 3.54207,-0.80586 4.18151,-2.11031 0.63943,-1.30444 0.99658,-3.97633 1.07332,-8.01756 l 0.0771,-6.25369 h 7.67316 v 16.18953 h 3.29896 v -18.87591 z m 41.66475,0 -0.0752,7.17423 c -0.0256,4.42489 -0.83254,7.43148 -2.41833,9.01728 h -1.84025 v 7.48108 h 3.18334 v -4.79668 h 14.54085 v 4.79668 h 3.18526 v -7.48108 h -2.8018 v -16.19151 z m 18.91505,0 6.25492,8.97769 -6.82915,9.89822 h 3.72096 l 5.7539,-8.40161 h 2.84034 v 8.40161 h 3.10627 v -8.40161 h 2.84034 l 5.7539,8.40161 h 3.72289 l -6.82915,-9.89822 6.25299,-8.97769 h -3.60727 l -5.25482,7.75031 h -2.87888 v -7.75031 h -3.10627 v 7.75031 h -2.87887 l -5.25483,-7.75031 z m -33.56958,2.1103 c 1.58579,0 2.83871,0.48706 3.7595,1.459 0.94636,0.97194 1.45713,2.30088 1.53386,3.98898 h -10.89504 c 0.25577,-1.73926 0.87023,-3.08221 1.84218,-4.02857 0.97194,-0.94637 2.22485,-1.41941 3.7595,-1.41941 z m -63.61091,0.11482 c 1.81599,0 3.26141,0.66546 4.33566,1.99548 1.07425,1.30445 1.61094,3.04427 1.61094,5.21835 0,2.17407 -0.53669,3.92593 -1.61094,5.25595 -1.07425,1.30445 -2.51967,1.95589 -4.33566,1.95589 -1.81599,0 -3.27438,-0.66348 -4.3742,-1.9935 -1.07425,-1.33003 -1.61094,-3.06985 -1.61094,-5.21834 0,-2.1485 0.53669,-3.88832 1.61094,-5.21835 1.09982,-1.33002 2.55821,-1.99548 4.3742,-1.99548 z m 81.25801,0.46126 h 7.48239 v 13.50513 h -9.55387 c 1.25329,-1.33002 1.9196,-4.31057 1.99633,-8.94007 z"
       transform="scale(1.0135779,0.98660399)" /><rect
       style="mix-blend-mode:normal;fill:#384997;fill-opacity:1;stroke:none;stroke-width:0.691578"
       id="rect6"
       width="2560.6399"
       height="60"
       x="0"
       y="1380.64" /></g></svg>
