<?xml version="1.0" encoding="UTF-8" standalone="no"?>
<!-- Created with Inkscape (http://www.inkscape.org/) -->

<svg
   version="1.1"
   id="svg1"
   width="2560.6399"
   height="1440.64"
   viewBox="0 0 2560.6399 1440.64"
   xml:space="preserve"
   xmlns="http://www.w3.org/2000/svg"
   xmlns:svg="http://www.w3.org/2000/svg"><defs
     id="defs1" /><g
     id="layer1"
     transform="translate(45,307.81055)"><rect
       style="display:inline;mix-blend-mode:normal;fill:#384997;fill-opacity:1;stroke:none;stroke-width:3.38878"
       id="rect6-1"
       width="2560.6399"
       height="1440.64"
       x="-45"
       y="-307.81055" /><path
       id="path1-6"
       style="display:inline;mix-blend-mode:normal;fill:#4759a1;fill-opacity:1;stroke:none;stroke-width:15.9736"
       d="m 2267.3125,-1.1503937 c -32.0511,0 -57.1699,25.3443007 -57.1699,57.6640627 0,32.231327 25.1188,57.470701 57.1699,57.470701 31.9601,0 57.9648,-25.762563 57.9648,-57.470701 0,-31.765671 -26.0047,-57.6640628 -57.9648,-57.6640627 z M 2028.3789,52.404294 c -39.1772,0 -69.8652,30.987283 -69.8652,70.492186 0,39.38651 30.688,70.22656 69.8652,70.22656 39.0711,0 70.8535,-31.49753 70.8535,-70.22656 0,-38.832422 -31.7824,-70.492186 -70.8535,-70.492186 z m 466.7676,19.193359 c -28.4876,0 -50.8262,22.528678 -50.8262,51.271487 0,28.63814 22.3386,51.0625 50.8262,51.0625 7.2888,0 14.2035,-1.54723 20.4941,-4.26367 V 75.884763 c -6.2907,-2.729795 -13.2051,-4.28711 -20.4941,-4.28711 z m -308.5274,99.794927 c -32.0513,0 -57.1562,25.34479 -57.1562,57.66601 0,32.22943 25.1049,57.46875 57.1562,57.46875 31.9622,0 57.9629,-25.76219 57.9629,-57.46875 0,-31.78197 -26.0007,-57.66601 -57.9629,-57.66601 z m 161.2989,6.40234 c -28.4876,0 -50.8067,22.54555 -50.8067,51.25781 0,28.65292 22.3191,51.07813 50.8067,51.07813 28.4134,0 51.5273,-22.90344 51.5273,-51.07813 0,-28.2482 -23.1139,-51.25781 -51.5273,-51.25781 z m -491.9512,55.47656 c -32.0528,0 -57.1719,25.3449 -57.1719,57.66406 0,32.2313 25.1191,57.47071 57.1719,57.47071 31.9616,0 57.9648,-25.76206 57.9648,-57.47071 0,-31.76567 -26.0032,-57.66406 -57.9648,-57.66406 z m 189.2539,15.86328 c -32.0514,0 -57.1562,25.35886 -57.1562,57.66407 0,32.231 25.1048,57.4707 57.1562,57.4707 31.9615,0 57.9629,-25.76429 57.9629,-57.4707 0,-31.7677 -26.0014,-57.66407 -57.9629,-57.66407 z m 447.4766,12.01367 c -24.9261,0 -44.459,19.7159 -44.459,44.84961 0,25.07627 19.5329,44.70118 44.459,44.70118 8.4089,0 16.1958,-2.44144 22.9433,-6.4336 v -76.6582 c -6.7474,-4.00796 -14.5345,-6.45899 -22.9433,-6.45899 z m -301.8809,74.76954 c -28.4874,0 -50.8223,22.52985 -50.8223,51.25781 0,28.65285 22.3349,51.07812 50.8223,51.07812 28.4001,0 51.5273,-22.90351 51.5274,-51.07812 0,-28.24814 -23.1273,-51.25781 -51.5274,-51.25781 z m 156.6582,6.38476 c -24.9268,0 -44.4453,19.71746 -44.4453,44.86719 0,25.0602 19.5185,44.68555 44.4453,44.68555 24.8642,0 45.0918,-20.04432 45.0918,-44.68555 0,-24.71635 -20.2276,-44.86719 -45.0918,-44.86719 z m -376.0117,47.91406 c -28.4891,0 -50.8106,22.5297 -50.8106,51.25782 0,28.65284 22.3215,51.07812 50.8106,51.07812 28.3977,0 51.5273,-22.90525 51.5273,-51.07812 0,-28.24814 -23.1296,-51.25782 -51.5273,-51.25782 z m -172.9512,81.94727 c -28.4889,0 -50.8222,22.5313 -50.8222,51.25781 0,28.65292 22.3333,51.07813 50.8222,51.07813 28.4123,0 51.5274,-22.90351 51.5274,-51.07813 0,-28.2482 -23.1151,-51.25781 -51.5274,-51.25781 z m 315.6797,5.71875 c -24.9252,0 -44.459,19.71573 -44.459,44.84961 0,25.07626 19.5338,44.70117 44.459,44.70117 24.8665,0 45.0918,-20.04409 45.0918,-44.70117 0,-24.71469 -20.2253,-44.84961 -45.0918,-44.84961 z m 153.2109,0 c -24.9252,0 -44.4628,19.71551 -44.4628,44.86523 0,25.06042 19.5376,44.68555 44.4628,44.68555 24.8636,0 45.0899,-20.04431 45.0899,-44.68555 0,-24.71619 -20.2263,-44.86523 -45.0899,-44.86523 z m 158.2188,6.40234 c -21.3636,0 -38.1152,16.90093 -38.1152,38.44141 0,21.48363 16.7516,38.30859 38.1152,38.30859 21.3005,0 38.6367,-17.18475 38.6367,-38.30859 0,-21.18283 -17.3362,-38.44141 -38.6367,-38.44141 z m -454.1582,71.74024 c -24.9252,0 -44.4609,19.7158 -44.4609,44.85156 0,25.07414 19.5357,44.70117 44.4609,44.70117 24.8505,0 45.0918,-20.04553 45.0918,-44.70117 0,-24.7168 -20.2413,-44.85156 -45.0918,-44.85156 z m 220.918,64.36523 c -21.363,0 -38.1153,16.90053 -38.1153,38.44336 0,21.48121 16.7523,38.3086 38.1153,38.3086 21.301,0 38.6367,-17.18708 38.6367,-38.3086 0,-21.18358 -17.3357,-38.44336 -38.6367,-38.44336 z m 155.1855,4.91406 c -17.8015,0 -31.7539,14.0883 -31.7539,32.05274 0,17.90454 13.9524,31.91601 31.7539,31.91601 17.7533,0 32.2149,-14.31151 32.2148,-31.91601 0,-17.66385 -14.4615,-32.05274 -32.2148,-32.05274 z m -292.9668,74.98633 c -21.3622,0 -38.1133,16.90228 -38.1133,38.44336 0,21.48295 16.7511,38.31055 38.1133,38.31055 21.3176,0 38.6387,-17.18684 38.6387,-38.31055 0,-21.18138 -17.3211,-38.44336 -38.6387,-38.44336 z m -191.2461,8.8711 c -24.9252,0 -44.4609,19.7161 -44.4609,44.85156 0,25.07401 19.5357,44.70117 44.4609,44.70117 24.865,0 45.0918,-20.04567 45.0918,-44.70117 0,-24.70051 -20.2268,-44.85156 -45.0918,-44.85156 z m 618.5371,3.91797 c -14.2356,0 -25.4043,11.25974 -25.4043,25.63085 0,14.3263 11.1687,25.53711 25.4043,25.53711 14.2053,0 25.7617,-11.44947 25.7617,-25.53711 0,-14.11608 -11.5564,-25.63085 -25.7617,-25.63085 z m -295.914,74.18359 c -17.8016,0 -31.7539,14.08753 -31.7539,32.03711 0,17.90357 13.9523,31.93164 31.7539,31.93164 17.7531,0 32.2011,-14.32645 32.2011,-31.93164 0,-17.65118 -14.448,-32.03711 -32.2011,-32.03711 z m 162.1191,6.40234 c -14.2377,0 -25.4062,11.25727 -25.4062,25.62891 0,14.32629 11.1685,25.53906 25.4062,25.53906 14.2053,0 25.7617,-11.45188 25.7617,-25.53906 0,-14.11609 -11.5564,-25.62891 -25.7617,-25.62891 z m -319.4941,91.52539 c -21.3628,0 -38.1133,16.90228 -38.1133,38.44336 0,21.4831 16.7505,38.31055 38.1133,38.31055 21.304,0 38.6386,-17.1867 38.6386,-38.31055 0,-21.18123 -17.3346,-38.44336 -38.6386,-38.44336 z m 466.7207,10.91016 c -14.2353,0 -25.4043,11.25922 -25.4043,25.63086 0,14.32629 11.169,25.53711 25.4043,25.53711 8.2921,0 15.6023,-3.96823 20.3183,-10.01758 v -31.08789 c -4.7159,-6.07323 -12.026,-10.0625 -20.3183,-10.0625 z m -227.8301,57.73242 c -17.8006,0 -31.7695,14.08739 -31.7695,32.03516 0,17.91936 13.9689,31.93166 31.7695,31.93166 17.7533,0 32.2012,-14.3107 32.2012,-31.93166 0,-17.64937 -14.4479,-32.03516 -32.2012,-32.03516 z" /><path
       id="text2-2-5"
       style="font-style:normal;font-variant:normal;font-weight:normal;font-stretch:normal;font-size:38.3661px;font-family:'Lab Grotesque';-inkscape-font-specification:'Lab Grotesque, Normal';font-variant-ligatures:normal;font-variant-caps:normal;font-variant-numeric:normal;font-variant-east-asian:normal;mix-blend-mode:normal;fill:#ffffff;fill-opacity:1;stroke:none;stroke-width:3.19717"
       d="m 136.90616,-194.30184 c -4.24376,0 -7.56445,3.35385 -7.56445,7.62695 0,4.26359 3.32069,7.60156 7.56445,7.60156 4.22463,0 7.66796,-3.40876 7.66796,-7.60156 0,-4.20125 -3.44333,-7.62695 -7.66796,-7.62695 z m -31.61133,7.08398 c -5.17892,0 -9.238282,4.09835 -9.238282,9.32031 0.0011,5.20931 4.059362,9.29297 9.238282,9.29297 5.16922,0 9.375,-4.16396 9.375,-9.29297 0,-5.1332 -4.2047,-9.32031 -9.375,-9.32031 z m 61.7461,2.53516 c -3.76595,0 -6.72071,2.98137 -6.72071,6.7832 0,3.79125 2.95476,6.75195 6.72071,6.75195 3.75974,0 6.81836,-3.02304 6.81836,-6.75195 0,-3.73526 -3.05862,-6.7832 -6.81836,-6.7832 z m 63.60937,5.41797 10.92578,23.20898 c -1.35887,3.37724 -3.42124,4.97391 -7.2168,4.59571 v 5.01562 c 5.57947,0.32761 9.56253,-2.29832 12.13867,-8.43555 l 10.17774,-24.38476 h -5.44336 l -7.16992,17.30078 -7.97265,-17.30078 z m -104.42578,7.78515 c -4.2408,0 -7.56251,3.35191 -7.56251,7.625 8e-4,4.26691 3.32278,7.60547 7.56251,7.60547 4.23083,0 7.66601,-3.40936 7.66601,-7.60547 0,-4.2031 -3.43518,-7.625 -7.66601,-7.625 z m 220.73241,0.31641 c -7.35961,0 -12.37109,5.38979 -12.37109,12.32812 0,7.03551 5.01232,12.33398 12.7461,12.33398 4.60044,0 8.11333,-1.92501 10.26953,-5.11327 l -4.17188,-2.43555 c -1.1252,1.64097 -3.23312,2.9043 -6.04882,2.9043 -3.7498,0 -6.7032,-1.87426 -7.5,-5.5293 h 18.66015 c 0.0943,-0.65736 0.18946,-1.41002 0.18946,-2.10937 0,-6.75233 -4.788,-12.37891 -11.77345,-12.37891 z m 29.49806,0 c -3.65827,0 -6.42501,1.50286 -8.20703,3.98828 l -1.5293,-3.37695 h -3.53321 v 34.35156 h 5.06251 v -14.23828 c 1.78202,2.43912 4.54876,3.93945 8.20703,3.93945 6.37707,0 11.67187,-5.34498 11.67187,-12.33203 0,-6.93833 -5.2948,-12.33203 -11.67187,-12.33203 z m 27.33593,0 c -7.07965,0 -12.37891,5.34605 -12.37891,12.33203 0,6.93941 5.29926,12.33199 12.37891,12.33398 4.59505,0 8.58302,-2.39193 10.55078,-6.0957 l -4.35937,-2.48437 c -1.12521,2.15781 -3.42405,3.60742 -6.23437,3.60742 -4.12666,0 -7.26954,-3.13884 -7.26954,-7.36133 0,-4.21845 3.14288,-7.36133 7.26954,-7.36133 2.81301,0 5.10963,1.40829 6.14062,3.61133 l 4.35742,-2.53125 c -1.87356,-3.65827 -5.85735,-6.05078 -10.45508,-6.05078 z m 72.54102,0 c -7.35962,0 -12.37305,5.38979 -12.37305,12.32812 0,7.03551 5.01352,12.33398 12.75,12.33398 4.59236,0 8.11092,-1.92501 10.26172,-5.11327 l -4.16602,-2.43555 c -1.1279,1.64097 -3.23656,2.9043 -6.04687,2.9043 -3.75787,0 -6.70785,-1.87426 -7.50195,-5.5293 h 18.66015 c 0.0915,-0.65736 0.18555,-1.41002 0.18555,-2.10937 0,-6.75233 -4.7841,-12.37891 -11.76953,-12.37891 z m -328.77148,0.53125 c -3.76623,0 -6.72266,2.9766 -6.72266,6.77539 0,3.79421 2.95643,6.75586 6.72266,6.75586 3.76082,0 6.8164,-3.02276 6.8164,-6.75586 0,-3.73122 -3.05558,-6.77539 -6.8164,-6.77539 z m 111.05859,0.0781 v 23.4453 h 5.06445 v -9.33397 h 10.73633 v 9.33397 h 5.06445 v -23.44531 h -5.06445 v 9.33008 H 263.6835 v -9.33008 z m 26.72656,0 v 23.4453 h 3.89258 l 12.00195,-14.91015 v 14.91015 h 4.97266 v -23.44531 h -3.89454 l -12.00194,14.86133 v -14.86133 z m 26.73047,0 v 23.44335 h 12 c 5.11215,0 7.69141,-2.90383 7.69141,-6.6582 0,-2.43669 -1.21788,-4.35956 -3.47071,-5.38867 1.64097,-1.08214 2.43945,-2.81541 2.43945,-4.92773 0,-3.70376 -2.62271,-6.46875 -7.5957,-6.46875 z m 106.0625,0 v 23.4453 h 3.89258 l 12.00195,-14.91015 v 14.91015 h 4.97461 v -23.44531 h -3.89648 l -11.99806,14.86133 v -14.86133 z m 24.2461,0 v 4.87304 h 7.6914 v 18.56641 h 5.0625 v -18.56641 h 7.64062 v -4.87305 z m 46.74999,0 v 4.87304 h 7.69336 v 18.56641 h 5.06055 v -18.56641 h 7.64258 v -4.87305 z m -142.22266,3.98242 c 3.04991,0 6.00641,1.73621 6.709,5.76758 h -13.78907 c 0.70527,-3.51668 3.28183,-5.76758 7.08007,-5.76758 z m 129.37306,0 c 3.05259,0 6.00175,1.73621 6.70702,5.76758 h -13.78515 c 0.69989,-3.51668 3.28257,-5.76758 7.07813,-5.76758 z m -100.62305,0.24023 c 4.21548,0 7.4082,3.13996 7.4082,7.5 0,4.36112 -3.19272,7.499 -7.4082,7.5 -4.22627,0 -7.41406,-3.13888 -7.41406,-7.5 0,-4.36004 3.18779,-7.5 7.41406,-7.5 z m -58.75587,0.0918 h 5.85939 c 1.96856,0 3.0957,0.88971 3.0957,2.57617 0,1.73734 -1.07948,2.62695 -3.0957,2.62695 h -5.85939 z m -234.417961,2.94531 c -4.237375,0 -7.560547,3.35493 -7.560547,7.62695 0,4.26341 3.323172,7.60157 7.560547,7.60157 4.227873,0 7.666015,-3.40896 7.666015,-7.60157 0,-4.20337 -3.438142,-7.62695 -7.666015,-7.62695 z m 108.396481,1.68945 c -3.29918,0 -5.88281,2.61242 -5.88281,5.93555 0,3.31559 2.58363,5.91407 5.88281,5.91407 3.28949,0 5.9629,-2.64909 5.9629,-5.91407 0,-3.26929 -2.67234,-5.93555 -5.9629,-5.93555 z m -83.36523,0.41016 c -4.24376,0 -7.562501,3.35513 -7.562501,7.625 0,4.26583 3.318741,7.60352 7.562501,7.60352 4.2311,0 7.66601,-3.40957 7.66601,-7.60352 0,-4.2023 -3.43491,-7.625 -7.66601,-7.625 z m 59.19531,1.58398 c -3.29889,0 -5.88281,2.61026 -5.88281,5.93555 0,3.32098 2.58498,5.91406 5.88281,5.91406 3.28976,0 5.96484,-2.65231 5.96484,-5.91406 0,-3.26714 -2.67508,-5.93555 -5.96484,-5.93555 z m 150.1914,2.75 h 6.69923 c 2.02025,0 3.19335,0.93951 3.19335,2.57617 0,1.78176 -1.1731,2.76759 -3.19335,2.76759 h -6.69923 z m -190.12304,7.14258 c -3.76703,0 -6.72071,2.98038 -6.72071,6.7832 0,3.7848 2.95368,6.75586 6.72071,6.75586 3.76082,0 6.81836,-3.02812 6.81836,-6.75586 0,-3.73956 -3.05754,-6.7832 -6.81836,-6.7832 z m 20.72657,0.84571 c -3.29892,0 -5.88086,2.60722 -5.88086,5.93359 -10e-4,3.31479 2.58194,5.91406 5.88086,5.91406 3.2884,0 5.96484,-2.65015 5.96484,-5.91406 0,-3.26607 -2.67537,-5.93359 -5.96484,-5.93359 z m -49.748054,6.33984 c -3.770387,0 -6.722656,2.97883 -6.722656,6.77734 0,3.79126 2.952269,6.76172 6.722656,6.76172 3.756524,0 6.814454,-3.03372 6.814454,-6.76172 0,-3.73633 -3.05793,-6.77734 -6.814454,-6.77734 z m 78.140624,1.58789 c -2.82458,0 -5.04102,2.23496 -5.04102,5.08594 0.001,2.84236 2.21644,5.0664 5.04102,5.0664 2.81922,0 5.11133,-2.26954 5.11133,-5.0664 0,-2.80226 -2.29211,-5.08594 -5.11133,-5.08594 z m 81.25,2.51953 c -17.11123,-0.002 -29.40039,12.85313 -29.40039,29.15625 0,16.310398 12.28809,29.166008 29.40039,29.166008 10.36214,0 19.52077,-5.30476 24.17773,-13.49804 l -8.0332,-4.57422 c -2.89109,5.53775 -9.07511,9.07226 -16.14453,9.07226 -12.12989,0 -20.16211,-8.59488 -20.16211,-20.164058 0,-11.56191 8.03329,-20.16016 20.16211,-20.16016 7.06942,0 13.17646,3.53393 16.14453,9.07813 l 8.0332,-4.6582 c -4.74041,-8.19544 -13.89904,-13.41797 -24.17773,-13.41797 z m -182.265624,6.73242 c -3.767156,0 -6.722656,2.97972 -6.722656,6.7793 0,3.79017 2.9555,6.75586 6.722656,6.75586 3.759754,0 6.816406,-3.02895 6.816406,-6.75586 0,-3.73632 -3.056652,-6.7793 -6.816406,-6.7793 z m 41.761724,0.75195 c -3.29918,0 -5.88282,2.61223 -5.88282,5.93751 0,3.31371 2.58472,5.91406 5.88282,5.91406 3.28947,0 5.96484,-2.65527 5.96484,-5.91406 0,-3.27118 -2.67537,-5.93751 -5.96484,-5.93751 z m 20.26757,0 c -3.29594,0 -5.88281,2.61223 -5.88281,5.93751 0,3.31371 2.58687,5.91406 5.88281,5.91406 3.28949,0 5.96485,-2.65527 5.96485,-5.91406 0,-3.26902 -2.67536,-5.93751 -5.96485,-5.93751 z m 20.93164,0.85157 c -2.82756,0 -5.04102,2.23524 -5.04102,5.08594 -9.9e-4,2.84047 2.21239,5.0625 5.04102,5.0625 2.81625,0 5.11328,-2.26967 5.11328,-5.0625 0,-2.80413 -2.2981,-5.08594 -5.11328,-5.08594 z m 39.75977,0.0879 c -2.82567,0 -5.04297,2.2363 -5.04297,5.08593 0,2.83941 2.2173,5.06836 5.04297,5.06836 2.81814,0 5.11133,-2.27337 5.11133,-5.06836 0,-2.80412 -2.29319,-5.08593 -5.11133,-5.08593 z m 158.93945,6.96484 c -6.26401,0 -11.00526,2.57373 -14.06055,6.83204 l -2.80468,-5.78321 h -5.86914 v 56.226558 h 8.67382 v -21.76369 c 3.05529,4.17377 7.79654,6.74219 14.06055,6.74219 10.92636,0 20.00391,-9.15224 20.00391,-21.123048 0,-11.8914 -9.07485,-21.13086 -20.00391,-21.13086 z m 134.49414,0 c -12.13231,0 -21.21288,9.16006 -21.21288,21.13086 0,11.890588 9.0813,21.123048 21.21093,21.123048 7.87107,0 14.69663,-4.09307 18.07226,-10.43945 l -7.47265,-4.25977 c -1.92201,3.69623 -5.86243,6.18555 -10.6836,6.18555 -7.06888,0 -12.44726,-5.37871 -12.44726,-12.609378 0,-7.22743 5.37838,-12.61133 12.44726,-12.61133 4.82117,0 8.76147,2.40884 10.52735,6.18555 l 7.47071,-4.33789 c -3.21682,-6.26591 -10.04373,-10.36719 -17.91212,-10.36719 z m -201.78711,1.04883 v 40.166018 h 7.34571 l 18.87695,-24.873048 v 24.873048 h 8.51953 v -40.166018 h -6.66992 l -19.55469,26.136718 v -26.136718 z m 94.95508,0 v 40.166018 h 7.33789 l 18.87696,-24.873048 v 24.873048 h 8.51758 v -40.166018 h -6.66798 l -19.55273,26.136718 v -26.136718 z m 41.57618,0 16.87109,39.839848 -0.24219,0.56444 c -2.00546,5.38269 -5.05951,8.03121 -10.68555,7.70899 v 8.11328 c 8.84283,0.56637 15.83071,-4.57322 19.60743,-14.77734 l 15.41992,-41.449218 h -9.24024 l -10.27929,29.242178 -12.21094,-29.242178 z m -328.015631,1.38672 c -3.295782,0 -5.882812,2.6085 -5.882812,5.93164 -0.0011,3.31693 2.585954,5.91797 5.882812,5.91797 3.285441,0 5.960941,-2.65514 5.960941,-5.91797 0,-3.27145 -2.6755,-5.93164 -5.960941,-5.93164 z m 77.935541,1.69141 c -2.35755,0 -4.20312,1.86687 -4.20312,4.24219 0,2.36266 1.84557,4.2207 4.20312,4.2207 2.34786,0 4.25586,-1.89599 4.25586,-4.2207 0,-2.33844 -1.90908,-4.24219 -4.25586,-4.24219 z m 179.47657,4.15038 c 7.22771,0 12.69141,5.3822 12.69141,12.85352 0,7.471588 -5.46101,12.853508 -12.69141,12.853508 -7.2277,0 -12.69532,-5.38192 -12.69532,-12.853508 0,-7.47132 5.46762,-12.85352 12.69532,-12.85352 z m -228.1914,2.67384 c -2.82164,0 -5.03516,2.23394 -5.03516,5.08788 0,2.83617 2.21459,5.06641 5.03516,5.06641 2.82243,0 5.11132,-2.27358 5.11132,-5.06641 0,-2.80332 -2.28889,-5.08788 -5.11132,-5.08788 z m 20.5332,0.64843 c -2.35432,0 -4.20313,1.86707 -4.20313,4.24024 0,2.36696 1.84881,4.21875 4.20313,4.21875 2.34812,0 4.25781,-1.88677 4.25781,-4.21875 0,-2.33629 -1.90969,-4.24024 -4.25781,-4.24024 z m -38.76172,9.91797 c -2.8246,0 -5.03907,2.237178 -5.03907,5.087888 0,2.84021 2.21447,5.0664 5.03907,5.0664 2.82136,0 5.11913,-2.27358 5.11913,-5.0664 0,-2.80226 -2.29668,-5.087888 -5.11913,-5.087888 z m -25.296879,1.17774 c -3.295861,0 -5.880859,2.606548 -5.880859,5.929678 0,3.31479 2.586048,5.91406 5.880859,5.91406 3.285283,0 5.962891,-2.64988 5.962891,-5.91406 0,-3.27117 -2.676558,-5.929678 -5.962891,-5.929678 z m 81.818359,0.515608 c -1.88082,0 -3.35937,1.48969 -3.35937,3.39259 9.9e-4,1.89455 1.47855,3.375 3.35937,3.375 1.88324,0 3.41211,-1.51196 3.41211,-3.375 0,-1.86817 -1.52887,-3.39259 -3.41211,-3.39259 z m 24.3086,1.29884 c -2.35541,0 -4.20313,1.86317 -4.20313,4.23633 0,2.36885 1.84772,4.22461 4.20313,4.22461 2.34383,0 4.25585,-1.89262 4.25585,-4.22461 0,-2.33198 -1.91202,-4.23633 -4.25585,-4.23633 z m -63.44727,8.5117 c -2.3554,0 -4.20313,1.86687 -4.20313,4.24219 0,2.36778 1.84773,4.22461 4.20313,4.22461 2.34706,0 4.25976,-1.89479 4.25976,-4.22461 0,-2.34059 -1.9127,-4.24219 -4.25976,-4.24219 z m 21.44141,0.85351 c -1.88299,0 -3.36329,1.48551 -3.36329,3.38868 0,1.89453 1.47924,3.37304 3.36329,3.37304 1.8765,0 3.41015,-1.51135 3.41015,-3.37304 0,-1.86818 -1.53365,-3.38868 -3.41015,-3.38868 z m -42.25977,12.10157 c -2.82783,0 -5.04102,2.24041 -5.04102,5.08788 0,2.84264 2.21319,5.06641 5.04102,5.06641 2.81921,0 5.10937,-2.27358 5.10937,-5.06641 0,-2.80628 -2.29016,-5.08788 -5.10937,-5.08788 z m 61.74218,1.4414 c -1.88323,0 -3.36327,1.49272 -3.36327,3.39453 0,1.89051 1.48004,3.37891 3.36327,3.37891 1.87651,0 3.40625,-1.51586 3.40625,-3.37891 0,-1.87113 -1.52974,-3.39453 -3.40625,-3.39453 z m -30.13866,7.63672 c -2.35433,0 -4.19923,1.86511 -4.19923,4.23828 0,2.36886 1.8449,4.22656 4.19923,4.22656 2.34786,0 4.25586,-1.89135 4.25586,-4.22656 0,-2.33199 -1.908,-4.23828 -4.25586,-4.23828 z m 90.82226,2.26171 v 26.875008 h 3.57812 v -12.490238 h 5.01563 l 9.3711,12.490238 h 4.1621 l -10.65625,-14.117188 10.11133,-12.75782 h -4.08398 l -8.98242,11.47071 h -4.93751 v -11.47071 z m 32.08203,7.72267 c -2.77394,0 -5.05494,0.92153 -6.84375,2.76366 -1.76287,1.81691 -2.64453,4.17614 -2.64453,7.07814 0,2.901983 0.88166,5.273089 2.64453,7.115226 1.78881,1.8169 4.06981,2.726559 6.84375,2.726559 2.77394,0 5.04181,-0.909659 6.80469,-2.726559 1.76287,-1.842137 2.64453,-4.213243 2.64453,-7.115226 0,-2.902 -0.88166,-5.26123 -2.64453,-7.07814 -1.76288,-1.84213 -4.03075,-2.76366 -6.80469,-2.76366 z m 64.51368,0 c -2.74802,0 -4.9653,0.9334 -6.6504,2.80078 -1.65918,1.84214 -2.48828,4.22706 -2.48828,7.15429 0,2.927232 0.85538,5.286459 2.56641,7.078132 1.73695,1.766425 4.04423,2.650383 6.92187,2.650383 1.63326,0 3.08516,-0.290693 4.35547,-0.871092 1.27032,-0.5804 2.59279,-1.577087 3.9668,-2.990229 l -1.98438,-1.968759 c -1.29623,1.186037 -2.37105,1.994845 -3.22656,2.42383 -0.85551,0.454232 -1.87973,0.679691 -3.07226,0.679691 -1.89251,0 -3.37069,-0.591311 -4.4336,-1.777347 -1.06291,-1.211264 -1.6463,-2.801216 -1.75,-4.769529 h 14.34961 c 0.0519,-0.60564 0.0781,-1.08616 0.0781,-1.43946 0,-2.80104 -0.76536,-4.99614 -2.29492,-6.58593 -1.50362,-1.58979 -3.6158,-2.38476 -6.33788,-2.38476 z m -49.46485,0.52929 -0.0781,8.70704 c -0.0777,3.179565 -0.25975,5.172949 -0.54492,5.980465 -0.25924,0.782268 -0.95893,1.22328 -2.09961,1.32422 -0.46664,0 -0.95807,-0.03759 -1.47656,-0.113282 l -0.34961,2.687499 c 0.6222,0.151404 1.34619,0.226564 2.17579,0.226564 2.17766,-0.100939 3.59211,-0.795065 4.24023,-2.08204 0.64811,-1.286966 1.01011,-3.923063 1.08788,-7.910156 l 0.0781,-6.16992 h 7.77735 v 15.972658 h 3.34375 v -18.623048 z m 22.04882,0 -0.0781,8.70704 c -0.0777,3.179565 -0.25975,5.172949 -0.54493,5.980465 -0.25925,0.782268 -0.95892,1.22328 -2.09961,1.32422 -0.46664,0 -0.95806,-0.03759 -1.47656,-0.113282 l -0.34961,2.687499 c 0.62219,0.151404 1.34815,0.226564 2.17773,0.226564 2.17767,-0.100939 3.59016,-0.795065 4.23829,-2.08204 0.64811,-1.286966 1.01011,-3.923063 1.08789,-7.910156 l 0.0781,-6.16992 h 7.77734 v 15.972658 h 3.34375 v -18.623048 z m 42.23047,0 -0.0762,7.07812 c -0.026,4.365618 -0.84384,7.331932 -2.45116,8.896489 h -1.86524 v 7.380863 h 3.22656 v -4.732424 h 14.73829 v 4.732424 h 3.22851 v -7.380863 h -2.83985 v -15.974609 z m 19.17188,0 6.33985,8.85743 -6.92188,9.765618 h 3.77149 l 5.83202,-8.289058 h 2.87891 v 8.289058 h 3.14844 v -8.289058 h 2.87891 l 5.83203,8.289058 h 3.77343 l -6.92187,-9.765618 6.33789,-8.85743 h -3.65625 l -5.32617,7.64649 h -2.91797 v -7.64649 h -3.14844 v 7.64649 h -2.91796 l -5.32618,-7.64649 z m -34.02538,2.08203 c 1.60732,0 2.87725,0.48054 3.81054,1.43946 0.95921,0.95892 1.47692,2.27005 1.55469,3.93554 h -11.04297 c 0.25924,-1.71596 0.88204,-3.04092 1.86719,-3.9746 0.98514,-0.9337 2.25506,-1.4004 3.81055,-1.4004 z m -64.47462,0.11328 c 1.84065,0 3.3057,0.65655 4.39453,1.96875 1.08884,1.28698 1.63282,3.00349 1.63282,5.14845 0,2.144942 -0.54398,3.873334 -1.63282,5.185537 -1.08883,1.286976 -2.55388,1.929689 -4.39453,1.929689 -1.84064,0 -3.31884,-0.654592 -4.43359,-1.966795 -1.08884,-1.312213 -1.63281,-3.028726 -1.63281,-5.148431 0,-2.11972 0.54397,-3.83624 1.63281,-5.14845 1.11475,-1.3122 2.59295,-1.96875 4.43359,-1.96875 z m 82.36133,0.45508 h 7.58398 v 13.324219 h -9.68359 c 1.27031,-1.312203 1.94566,-4.252826 2.02344,-8.820309 z" /></g></svg>
